<?xml version="1.0" encoding="UTF-8"?>
<svg width="16px" height="16px" viewBox="0 0 16 16" version="1.1" xmlns="http://www.w3.org/2000/svg" xmlns:xlink="http://www.w3.org/1999/xlink">
    <title>Keyboard</title>
    <g id="车场设置" stroke="none" stroke-width="1" >
        <g id="车辆授权/列表" transform="translate(-899.000000, -172.000000)">
            <g id="Toolbar/1136px" transform="translate(305.000000, 164.000000)">
                <g id="Right#" transform="translate(582.000000, 0.000000)">
                    <g id="Icon" transform="translate(12.000000, 8.000000)">
                        <path d="M1.9200024,2.28363845 L1.92000236,2.28363845 C1.38980799,2.28363845 0.960001243,2.71344535 0.960001243,3.24363971 C0.960001243,3.24363971 0.960001243,3.24363971 0.960001243,3.24363971 L0.960001243,12.8436509 L0.960001243,12.8436507 C0.960001243,13.3738451 1.38980799,13.8036519 1.92000236,13.8036519 L14.0800165,13.8036519 L14.0800165,13.8036519 C14.6102108,13.8036519 15.0400176,13.3738451 15.0400176,12.8436507 C15.0400176,12.8436507 15.0400176,12.8436507 15.0400176,12.8436507 L15.0400176,3.24363957 L15.0400176,3.24363957 C15.0400176,2.7134452 14.6102108,2.28363845 14.0800165,2.28363845 L1.92000232,2.28363845 L1.9200024,2.28363845 Z M1.9200024,1.32363748 L14.0800166,1.32363748 L14.0800165,1.32363748 C15.1404052,1.32363748 16.0000187,2.18325098 16.0000187,3.24363971 L16.0000187,12.8436509 L16.0000187,12.8436509 C16.0000187,13.9040396 15.1404052,14.7636531 14.0800165,14.7636531 L1.92000232,14.7636531 L1.92000223,14.7636531 C0.8596135,14.7636531 0,13.9040381 0,12.8436509 C0,12.8436509 0,12.8436509 0,12.8436509 L0,3.24363971 L0,3.24364 C0,2.18325127 0.8596135,1.32363748 1.92000223,1.32363748 L1.9200024,1.32363748 Z M2.24000277,5.16364195 L4.16000501,5.16364195 L4.16000501,6.12364307 L2.24000277,6.12364307 L2.24000277,5.16364195 Z M2.24000277,7.40364456 L4.16000501,7.40364456 L4.16000501,8.36364567 L2.24000277,8.36364567 L2.24000277,7.40364456 Z M3.20000389,10.2836479 L13.1200154,10.2836479 L13.1200154,11.243649 L3.20000389,11.243649 L3.20000389,10.2836479 L3.20000389,10.2836479 Z M5.4400065,5.16364195 L7.36000873,5.16364195 L7.36000873,6.12364307 L5.4400065,6.12364307 L5.4400065,5.16364195 Z M5.4400065,7.40364456 L7.36000873,7.40364456 L7.36000873,8.36364567 L5.4400065,8.36364567 L5.4400065,7.40364456 Z M8.64001022,5.16364195 L10.5600125,5.16364195 L10.5600125,6.12364307 L8.64001022,6.12364307 L8.64001022,5.16364195 Z M8.64001022,7.40364456 L10.5600125,7.40364456 L10.5600125,8.36364567 L8.64001022,8.36364567 L8.64001022,7.40364456 Z M11.8400139,5.16364195 L13.7600162,5.16364195 L13.7600162,6.12364307 L11.8400139,6.12364307 L11.8400139,5.16364195 Z M11.8400139,7.40364456 L13.7600162,7.40364456 L13.7600162,8.36364567 L11.8400139,8.36364567 L11.8400139,7.40364456 Z" id="形状"></path>
                    </g>
                </g>
            </g>
        </g>
    </g>
</svg>