<?xml version="1.0" encoding="UTF-8"?>
<svg width="16px" height="16px" viewBox="0 0 16 16" version="1.1" xmlns="http://www.w3.org/2000/svg"
    xmlns:xlink="http://www.w3.org/1999/xlink">
    <title>Menu Icon</title>
    <g id="工作台" stroke="none" stroke-width="1">
        <g id="菜单切图" transform="translate(-397.000000, -235.000000)">
            <g id="Nav" transform="translate(373.000000, 127.000000)">
                <g id="#2" transform="translate(0.000000, 96.000000)">
                    <g id="Menu-Icon" transform="translate(24.000000, 12.000000)">
                        <path
                            d="M11.9333642,2.18181818 L11.9333642,3.10469253 L5.95811825,3.10491917 L5.95811825,7.7202 L5.95811825,7.72020005 C5.9732873,7.96005511 5.78923267,8.16667341 5.54702025,8.18169529 C5.54261694,8.18196837 5.53820973,8.18217577 5.53380016,8.18231741 L5.49191756,8.1816375 L3.62779376,8.1816375 L3.62779376,7.25196424 L5.02593399,7.25196424 L5.02593399,4.94454671 L2.96200988,4.94454671 L1.29746133,7.85232331 L1.29746133,11.8740369 L2.22963457,11.8740369 L2.22963447,11.8740373 C2.45440302,11.0617144 3.19677722,10.496144 4.04728785,10.4892701 L4.04728777,10.4892701 C4.88041611,10.4826229 5.61647896,11.0251545 5.84915091,11.8173797 L5.86494268,11.8740395 L8.8010727,11.8740395 L8.80107264,11.8740398 C9.02581868,11.0617966 9.76807205,10.4962521 10.6185009,10.4892725 L10.6185009,10.4892725 C11.4517134,10.4825235 12.1878935,11.025076 12.420601,11.8173822 L12.4361639,11.874042 L13.4150267,11.874042 L13.4147978,9.08842519 L14.3469711,9.08842519 L14.3469711,11.8738191 L14.3469711,11.8738193 C14.3453642,12.3651155 13.9566847,12.7697045 13.4612576,12.7957869 L13.4150266,12.7971468 L12.4828533,12.7971468 L12.4828534,12.7971465 C12.2579309,13.6093345 11.5156194,14.17477 10.6652,14.1817597 L10.6652,14.1817597 C9.83216049,14.18829 9.09616279,13.6458968 8.86333685,12.8538158 L8.84754508,12.797156 L5.91141505,12.797156 L5.91141512,12.7971558 C5.68649259,13.6093437 4.94418117,14.1747792 4.09376175,14.1817597 L4.09376173,14.1817597 C3.26072223,14.1882992 2.52472453,13.6459061 2.29189859,12.8538251 L2.27610682,12.7971653 L1.29747262,12.7971653 L1.29747264,12.7971653 C0.801435517,12.7954542 0.393006334,12.4105906 0.366672304,11.9200721 L0.365299099,11.8740644 L0.365299099,7.72022017 L0.3652991,7.72022018 C0.359318926,7.65390244 0.369523075,7.58713237 0.39505178,7.5255375 L0.411987957,7.48927525 L2.13649911,4.4894741 L2.13649913,4.48947406 C2.31274322,4.22601638 2.60118205,4.05705952 2.91922311,4.03098297 L2.97529549,4.02803666 L5.02594065,4.02803666 L5.02594065,3.10493591 L5.02594066,3.10493252 C5.02767036,2.61372315 5.4163171,2.20927023 5.9116577,2.18319485 L5.95811426,2.18181818 L11.9333603,2.18181818 L11.9333642,2.18181818 Z M4.09376938,11.4121452 L4.09376934,11.4121452 C3.57894386,11.4121452 3.1615961,11.8254323 3.1615961,12.335246 C3.1615961,12.8450608 3.57894504,13.2583467 4.09376934,13.2583467 L4.09376939,13.2583467 C4.60786519,13.2566058 5.02418475,12.8443371 5.02594267,12.335246 L5.02594267,12.3354726 C5.02594267,11.8257469 4.6087335,11.4124962 4.09399804,11.4123719 L4.09376938,11.4121452 Z M9.95962094,11.6825262 L9.95962092,11.6825262 C9.59559036,12.0430255 9.59559984,12.6275005 9.95964199,12.9879846 C10.1344528,13.1610881 10.3715419,13.2583444 10.6187568,13.2583444 L10.6187568,13.2583444 C11.1327625,13.2564792 11.5489447,12.8442468 11.5507014,12.3352436 L11.5507014,12.3352645 C11.5507014,11.8254496 11.1333524,11.4121637 10.6185281,11.4121637 C10.3713133,11.4121637 10.1342217,11.509409 9.95940742,11.6825083 L9.95962094,11.6825262 Z M9.23914932,8.63491212 C9.32657638,8.63491212 9.37028997,8.67729362 9.37028997,8.76182976 L9.37028997,9.41455074 C9.37028997,9.49908712 9.32657649,9.54146838 9.23914932,9.54146838 L6.75503686,9.54146838 C6.6676098,9.54146838 6.62389621,9.49908688 6.62389621,9.41455074 L6.62389621,8.76182976 C6.62389621,8.67729339 6.66738082,8.63491212 6.75503686,8.63491212 L9.23914932,8.63491212 Z M13.8469234,3.04394811 L13.8469235,3.04394805 C14.2558727,2.6417063 14.9159944,2.6417063 15.3249388,3.04394817 L15.3249388,3.04394818 C15.7362086,3.44655708 15.7407135,4.10287576 15.335009,4.51098033 L11.7331069,8.08779716 L11.7331069,8.08779716 C11.7056655,8.11432123 11.6727028,8.13458705 11.6365252,8.14717664 L9.94886579,8.67116647 L9.9488658,8.67116646 C9.92563438,8.6743828 9.90206405,8.6743828 9.87883263,8.67116647 L9.87883263,8.67116647 C9.81601689,8.6723475 9.75560842,8.64725099 9.71244648,8.60204154 L9.71244648,8.60204154 C9.65142961,8.54030602 9.62970022,8.45031421 9.65591638,8.36792379 L10.1850561,6.69668979 L10.1850561,6.69668983 C10.1952447,6.66137774 10.2148513,6.62943577 10.241815,6.60422105 L13.8469234,3.04394811 Z M14.8006107,3.56657839 L14.8006107,3.56657838 C14.6507551,3.41822823 14.4109249,3.40885451 14.2497283,3.54504769 L10.7377701,7.0130773 L10.3848579,7.91623411 L11.310394,7.58670056 L14.8223522,4.11210195 L14.8223522,4.11210195 C14.9598836,3.95247541 14.9504189,3.71497815 14.8006099,3.56658108 L14.8006107,3.56657839 Z M8.5852774,6.71459245 C8.65096216,6.71459245 8.68368999,6.75697396 8.68368999,6.8415101 L8.68368999,7.49423107 C8.68368999,7.57876745 8.65096204,7.62114872 8.5852774,7.62114872 L6.72230263,7.62114872 C6.65661788,7.62114872 6.62389005,7.57876721 6.62389005,7.49423107 L6.62389005,6.8415101 C6.62389005,6.75697372 6.656618,6.71459245 6.72230263,6.71459245 L8.5852774,6.71459245 Z"
                            id="形状"></path>
                    </g>
                </g>
            </g>
        </g>
    </g>
</svg>