<?xml version="1.0" encoding="UTF-8"?>
<svg viewBox="0 0 16 16" version="1.1" xmlns="http://www.w3.org/2000/svg"
    xmlns:xlink="http://www.w3.org/1999/xlink">
    <title>Menu Icon</title>
    <g id="工作台" stroke="none" stroke-width="1">
        <g id="菜单切图" transform="translate(-397.000000, -283.000000)">
            <g id="Nav" transform="translate(373.000000, 127.000000)">
                <g id="#3" transform="translate(0.000000, 144.000000)">
                    <g id="Menu-Icon" transform="translate(24.000000, 12.000000)">
                        <path
                            d="M13.351881,0.761893039 C13.7534604,0.761893039 14.0814293,1.10398868 14.0814293,1.5253225 L14.0814293,14.4746679 C14.0833971,14.8936064 13.7570324,15.2351618 13.351881,15.2381125 L2.28449974,15.2381125 C1.87934833,15.2351764 1.55298302,14.8936196 1.55495133,14.4746831 L1.55495133,12.9523896 C1.55495133,12.7419951 1.71997293,12.5714369 1.92344665,12.5714369 C2.12692037,12.5714368 2.29186813,12.7419951 2.29186813,12.9523897 L2.29186813,14.4746831 L13.351881,14.4762069 L13.3445126,1.52532877 L2.2844997,1.52380502 L2.29186813,3.04761632 C2.29186813,3.25801091 2.12692037,3.42856914 1.92344665,3.42856914 C1.71997293,3.42856914 1.55495133,3.25801091 1.55495133,3.04761632 L1.55495133,1.52532288 C1.55298351,1.10638451 1.87934832,0.764829054 2.2844997,0.761893039 L13.351881,0.761893039 Z M10.7659479,4.62448959 C10.889042,4.7688777 10.8891897,4.98535757 10.7662927,5.1299247 L9.55194247,6.38389304 L10.8731384,6.38400996 C11.0766121,6.38400996 11.2415599,6.5545682 11.2415599,6.76496279 C11.2415599,6.97535738 11.0766121,7.14591561 10.8731384,7.14591561 L9.03094247,7.14589304 L9.03094247,8.28789304 L11.6099813,8.28877408 C11.813455,8.28877408 11.9784028,8.45933232 11.9784028,8.66972691 C11.9784028,8.8801215 11.813455,9.05067973 11.6099813,9.05067973 L9.03094247,9.04989304 L9.03176153,10.9554672 C9.03176153,11.1395625 8.9054734,11.293158 8.73758987,11.3286804 L8.66334016,11.3363967 L8.66334016,11.3363967 L8.66260953,11.33642 C8.48457003,11.33642 8.33602696,11.2058185 8.30167306,11.0322202 L8.29418805,10.9554439 L8.29418805,10.9554439 L8.29394247,9.04989304 L5.71523764,9.05067973 C5.51176392,9.05067973 5.34681616,8.8801215 5.34681616,8.66972691 C5.34681616,8.45933232 5.51176392,8.28877408 5.71523764,8.28877408 L8.29394247,8.28789304 L8.29394247,7.14589304 L6.4520806,7.14591561 C6.24860689,7.14591561 6.08365912,6.97535738 6.08365912,6.76496279 C6.08365912,6.5545682 6.24860689,6.38400996 6.4520806,6.38400996 L7.77294247,6.38389304 L6.55965681,5.12990133 C6.42478404,4.97124638 6.43983276,4.72957646 6.59326908,4.59011498 C6.73308115,4.46303805 6.94244054,4.46319088 7.08207804,4.59047185 L8.66194247,6.22489304 L10.2438717,4.59049594 C10.3971177,4.45081185 10.6308596,4.46603137 10.7659479,4.62448959 Z M3.81271487,10.2857258 C4.01618859,10.2857258 4.18113635,10.456284 4.18113635,10.6666786 C4.18113635,10.8770732 4.01618859,11.0476315 3.81271487,11.0476315 L1.97060748,11.0476315 C1.76713376,11.0476315 1.602186,10.8770732 1.602186,10.6666786 C1.602186,10.456284 1.76713376,10.2857258 1.97060748,10.2857258 L3.81271487,10.2857258 Z M3.81271493,7.61905604 C4.01618864,7.61905604 4.18113641,7.78961428 4.18113641,8.00000887 C4.18113641,8.21040346 4.01618864,8.38096169 3.81271493,8.38096169 L1.97060754,8.38096169 C1.76713382,8.38096169 1.60218606,8.21040346 1.60218606,8.00000887 C1.60218606,7.78961428 1.76713382,7.61905604 1.97060754,7.61905604 L3.81271493,7.61905604 Z M3.81271494,4.95238627 C4.01618865,4.95238627 4.18113642,5.12294451 4.18113642,5.3333391 C4.18113642,5.54373369 4.01618865,5.71429192 3.81271494,5.71429192 L1.97060751,5.71429192 C1.7671338,5.71429192 1.60218603,5.54373369 1.60218603,5.3333391 C1.60218603,5.12294451 1.7671338,4.95238627 1.97060751,4.95238627 L3.81271494,4.95238627 Z"
                            id="Pay"></path>
                    </g>
                </g>
            </g>
        </g>
    </g>
</svg>