<?xml version="1.0" encoding="UTF-8"?>
<svg width="16px" height="16px" viewBox="0 0 16 16" version="1.1" xmlns="http://www.w3.org/2000/svg"
    xmlns:xlink="http://www.w3.org/1999/xlink">
    <title>Menu Icon</title>
    <g id="工作台" stroke="none" stroke-width="1">
        <g id="菜单切图" transform="translate(-397.000000, -187.000000)">
            <g id="Nav" transform="translate(373.000000, 127.000000)">
                <g id="#1" transform="translate(0.000000, 48.000000)">
                    <g id="Menu-Icon" transform="translate(24.000000, 12.000000)">
                        <path
                            d="M7.55466504,10.9695237 C7.28960848,10.9695237 7.07452073,11.1844365 7.07452073,11.4497165 C7.07452073,11.7148043 7.28960848,11.9299092 7.55466504,11.9299092 C7.82010597,11.9299092 8.03484216,11.7148214 8.03484216,11.4497165 C8.03484216,11.1844365 7.82010597,10.9695237 7.55466504,10.9695237 Z M10.0678555,10.9695237 L9.20345446,10.9695237 C8.91175881,10.9695237 8.67545385,11.1822927 8.67545385,11.4448836 L8.67545385,11.4544356 C8.67545385,11.7169953 8.91175881,11.9299081 9.20345446,11.9299081 L10.0678555,11.9299081 C10.3595199,11.9299081 10.596192,11.7169953 10.596192,11.4544356 L10.596192,11.4448836 C10.596192,11.1822911 10.3595355,10.9695237 10.0678555,10.9695237 Z M11.7209824,10.9695237 L11.7116544,10.9695237 C11.4490619,10.9695237 11.2361663,11.1822927 11.2361663,11.4448836 L11.2361663,11.4544356 C11.2361663,11.7169953 11.4490619,11.9299081 11.7116544,11.9299081 L11.7209824,11.9299081 C11.9835905,11.9299081 12.1964704,11.7169953 12.1964704,11.4544356 L12.1964704,11.4448836 C12.1964544,11.1822911 11.9835905,10.9695237 11.7209824,10.9695237 Z M13.635844,9.36922497 L12.8370743,9.36922497 L12.8370743,9.35871296 C12.8370743,8.29803985 11.9773452,7.43796072 10.9163221,7.43796072 L8.35528785,7.43796072 C7.29493505,7.43796072 6.43456686,8.29804141 6.43456686,9.35871296 L6.43456686,9.36922497 L5.63267843,9.36922497 C5.36725468,9.36922497 5.15219818,9.58415334 5.15219818,9.84943334 C5.15219818,10.1145211 5.36725468,10.329562 5.63267843,10.329562 L5.96010225,10.329562 C5.85487009,10.5155466 5.79464581,10.7303937 5.79464581,10.9593393 L5.79464581,11.9197561 C5.79464581,12.4018847 6.06106174,12.8217727 6.4547747,13.0401886 C6.44155868,13.0913246 6.43456671,13.1449728 6.43456671,13.2002529 L6.43456671,13.5204126 C6.43456671,13.8739005 6.72155923,14.1605899 7.0748237,14.1605899 L7.71504788,14.1605899 C8.06896861,14.1605899 8.35530488,13.873949 8.35530488,13.5204126 L8.35530488,13.2002529 L10.9163391,13.2002529 L10.9163391,13.5204126 C10.9163391,13.8739005 11.2032988,14.1605899 11.5565961,14.1605899 L12.1971093,14.1605899 C12.5507098,14.1605899 12.8370945,13.873949 12.8370945,13.5204126 L12.8370945,13.2002529 C12.8370945,13.1450369 12.8300865,13.0914527 12.8169504,13.0403324 C13.2107743,12.8219321 13.4773027,12.4020441 13.4773027,11.9197545 L13.4773027,10.9593378 C13.4773027,10.7303781 13.4171106,10.5155451 13.3118306,10.3296245 L13.6358466,10.3296245 C13.9008876,10.3296245 14.116055,10.1145368 14.116055,9.84943178 C14.116055,9.58413616 13.9009032,9.36922341 13.6358466,9.36922341 L13.635844,9.36922497 Z M7.07480511,9.35869696 C7.07480511,8.65154457 7.6481339,8.07821578 8.35528629,8.07821578 L10.9163361,8.07821578 C11.6235057,8.07821578 12.1971064,8.65154457 12.1971064,9.35869696 L12.1949464,9.67887389 L7.07480511,9.67887389 L7.07480511,9.35869696 L7.07480511,9.35869696 Z M7.71502929,13.5204205 L7.07480511,13.5204205 L7.07480511,13.2002608 L7.71502929,13.2002608 L7.71502929,13.5204205 Z M12.1970814,13.5204205 L11.5565681,13.5204205 L11.5565681,13.2002608 L12.1970814,13.2002608 L12.1970814,13.5204205 Z M12.8370665,11.9197624 C12.8370665,12.2728347 12.5500255,12.5600038 12.1970814,12.5600038 L7.07480979,12.5600038 C6.72220157,12.5600038 6.4345528,12.2728519 6.4345528,11.9197624 L6.4345528,10.9593457 C6.4345528,10.6062578 6.72220157,10.3191371 7.07480979,10.3191371 L12.1970814,10.3191371 C12.5500255,10.3191371 12.8370665,10.6062422 12.8370665,10.9593457 L12.8370665,11.9197624 L12.8370665,11.9197624 Z M8.6814601,4.95469183 C8.6814601,3.47393855 7.47677901,2.26923558 5.99598041,2.26923558 L2.50849198,2.26923558 L2.50849198,2.90930039 L2.50849198,7.64014964 L2.50849198,14.1606572 L3.35079765,14.1606572 L3.35079765,7.64016527 L5.99598823,7.64016527 C7.47677433,7.64016527 8.6814601,6.43547637 8.6814601,4.95469339 L8.6814601,4.95469183 Z M3.35078984,3.11154906 L5.99598041,3.11154906 C7.01231753,3.11154906 7.83917006,3.93835002 7.83917006,4.95469183 C7.83917006,5.97098051 7.01232066,6.79785023 5.99598041,6.79785023 L3.35078984,6.79785023 L3.35078984,3.11154906 L3.35078984,3.11154906 Z"
                            id="Parking"></path>
                    </g>
                </g>
            </g>
        </g>
    </g>
</svg>