<?xml version="1.0" encoding="UTF-8"?>
<svg width="16px" height="16px" viewBox="0 0 16 16" version="1.1" xmlns="http://www.w3.org/2000/svg"
    xmlns:xlink="http://www.w3.org/1999/xlink">
    <title>Menu Icon</title>
    <g id="工作台" stroke="none" stroke-width="1">
        <g id="菜单切图" transform="translate(-397.000000, -331.000000)">
            <g id="Nav" transform="translate(373.000000, 127.000000)">
                <g id="#4" transform="translate(0.000000, 192.000000)">
                    <g id="Menu-Icon" transform="translate(24.000000, 12.000000)">
                        <path
                            d="M8.00000931,4.66719293 C7.10938327,4.66719293 6.2718823,5.01406833 5.64219407,5.64375657 C5.01250583,6.2734448 4.66563043,7.11094577 4.66563043,8.00157181 C4.66563043,8.89219785 5.01250583,9.72969882 5.64219407,10.3593871 C6.2718823,10.9890753 7.10938327,11.3359507 8.00000931,11.3359507 C8.89063535,11.3359507 9.72813632,10.9890753 10.3578246,10.3593871 C10.9875128,9.72969882 11.3343882,8.89219785 11.3343882,8.00157181 C11.3343882,7.11094577 10.9875128,6.2734448 10.3578246,5.64375657 C9.72813632,5.01406833 8.89063535,4.66719293 8.00000931,4.66719293 Z M8.00000931,10.3328245 C6.71407031,10.3328245 5.66719409,9.28594831 5.66719409,8.00000931 C5.66719409,6.71407031 6.71407031,5.66719409 8.00000931,5.66719409 C9.28594831,5.66719409 10.3328245,6.71407031 10.3328245,8.00000931 C10.3328245,9.28594831 9.28594831,10.3328245 8.00000931,10.3328245 Z M15.0000175,9.43751098 L15.0000175,6.56250764 L13.357828,6.08438208 C13.295328,5.90938188 13.2234529,5.73594417 13.1422028,5.56719398 L13.9656413,4.06719223 L11.9328264,2.03437737 L10.4343871,2.85625332 C10.2640744,2.77500323 10.0906367,2.70312815 9.91407404,2.63906557 L9.43751098,1.00000116 L6.56250764,1.00000116 L6.08594458,2.63906557 C5.90938188,2.70312815 5.73438167,2.77500323 5.56563148,2.85625332 L4.06719223,2.03437737 L2.03437737,4.06719223 L2.85781583,5.56875648 C2.77656573,5.73906918 2.70469065,5.91250688 2.64062807,6.08906959 L1.00000116,6.56094513 L1.00000116,9.43594848 L2.64375308,9.91876154 C2.70781565,10.0937617 2.77969073,10.2671994 2.85937833,10.4359496 L2.03281487,11.9328264 L4.06562973,13.9656413 L5.56875648,13.1453278 C5.73906918,13.2265779 5.91250688,13.298453 6.08906959,13.360953 L6.56250764,15.0000175 L9.43751098,15.0000175 L9.91876154,13.3593905 C10.0953242,13.295328 10.2703245,13.2234529 10.4390746,13.1422028 L11.9328264,13.9672038 L13.9656413,11.9343889 L13.1437653,10.4296996 C13.2234529,10.2625119 13.2937655,10.0906367 13.357828,9.91563654 L15.0000175,9.43751098 Z M13.0515777,9.07813556 L12.7281398,9.07813556 L12.6265772,9.41094845 C12.5359521,9.70626129 12.4156394,9.99688663 12.2687643,10.271887 L12.1047016,10.5796998 L12.3437644,10.8187626 L12.8953275,11.8281388 L11.8281388,12.8922025 L10.8000126,12.3250143 L10.5796998,12.1062641 L10.271887,12.2703268 C9.99376163,12.4187645 9.70313629,12.5390771 9.41094845,12.6281397 L9.07657306,12.7297023 L9.07657306,13.0640777 L8.75313519,14.167204 L7.24688343,14.167204 L6.92188305,13.0390777 L6.92188305,12.7297023 L6.58750767,12.6281397 C6.29531983,12.5390771 6.00469449,12.4187645 5.72656916,12.2703268 L5.4171938,12.1047016 L5.18125603,12.3437644 L4.17187985,12.893765 L3.10781612,11.8297013 L3.67500428,10.8015751 L3.89531703,10.5812623 L3.73125434,10.2734495 C3.58281667,9.99532413 3.46250403,9.70626129 3.37344143,9.41251095 L3.27187881,9.07969807 L2.93594092,9.07969807 L1.83281463,8.75626019 L1.83281463,7.25000844 L2.96094095,6.92500806 L3.27187881,6.92500806 L3.37344143,6.59219517 C3.46250403,6.29844483 3.58437917,6.00938199 3.73125434,5.73125667 L3.89531703,5.42344381 L3.66562927,5.19375604 L3.10781612,4.17187985 L4.17187985,3.10781612 L5.19063104,3.66719177 L5.41875631,3.89531703 L5.72656916,3.73125434 C6.00469449,3.58281667 6.29531983,3.46094153 6.58750767,3.37344143 L6.92188305,3.27187881 L6.92188305,2.95156593 L7.24688343,1.83593964 L8.75313519,1.83593964 L9.07813556,2.95156593 L9.07813556,3.27187881 L9.41251095,3.37344143 C9.70626129,3.46250403 9.99532413,3.58281667 10.2734495,3.73125434 L10.5843873,3.89687953 L10.8109501,3.66562927 L11.8281388,3.10781612 L12.8922025,4.17187985 L12.3328269,5.19063104 L12.1031391,5.42031881 L12.2672018,5.72813167 C12.4140769,6.00469449 12.5343896,6.29375732 12.6250147,6.58907017 L12.7265773,6.92188305 L13.0500152,6.92188305 L14.1656415,7.24688343 L14.1656415,8.75313519 L13.0515777,9.07813556 L13.0515777,9.07813556 Z"
                            id="Settings"></path>
                    </g>
                </g>
            </g>
        </g>
    </g>
</svg>