<?xml version="1.0" encoding="UTF-8"?>
<svg width="16px" height="16px" viewBox="0 0 16 16" version="1.1" xmlns="http://www.w3.org/2000/svg"
    xmlns:xlink="http://www.w3.org/1999/xlink">
    <title>Menu Icon</title>
    <g id="工作台" stroke="none" stroke-width="1">
        <g id="菜单切图" transform="translate(-397.000000, -139.000000)">
            <g id="Nav" transform="translate(373.000000, 127.000000)">
                <g id="Menu-Icon" transform="translate(24.000000, 12.000000)">
                    <path
                        d="M7.8,11.2 L7.8,11.2 C7.8,11.3104569 7.88954297,11.4 8,11.4 C8.11045688,11.4 8.2,11.310457 8.2,11.2 C8.2,11.2 8.2,11.2 8.2,11.2 L8.2,11.2 C8.2,11.0895431 8.11045688,11 8,11 C7.88954313,11 7.8,11.0895431 7.8,11.2 L7.8,11.2 Z M4.5,6.5 L8.5,6.5 L8.5,7 L4.5,7 L4.5,6.5 Z M4.5,7.5 L8.5,7.5 L8.5,8 L4.5,8 L4.5,7.5 Z M4.5,8.5 L8.5,8.5 L8.5,9 L4.5,9 L4.5,8.5 Z M8.9,6.5 L11.5,6.5 L11.5,9.1 L8.9,9.1 L8.9,6.5 Z M4.5,4 L11.5,4 L11.5,6 L4.5,6 L4.5,4 Z M13,2 L3,2 C2.5,2 2,2.5 2,3 L2,11 C2,11.6 2.5,12 3,12 L7,12 L6.1,13.7 C6,13.8 6.1,14 6.3,14 L9.6,14 C9.8,14 9.8,13.8 9.8,13.7 L9,12 L13,12 C13.6,12 14,11.5 14,11 L14,3 C14,2.5 13.5,2 13,2 L13,2 Z M7.7,11.2 C7.7,11.1 7.8,11 7.9,11 C8,11 8.1,11.1 8.1,11.2 C8.1,11.3 8.1,11.4 8,11.4 C7.9,11.4 7.7,11.3 7.7,11.2 Z M13.5,9.5 C13.5,10.1 13.1,10.5 12.5,10.5 L3.5,10.5 C2.9,10.5 2.5,10.1 2.5,9.5 L2.5,3.5 C2.5,2.9 2.9,2.5 3.5,2.5 L12.5,2.5 C13.1,2.5 13.5,2.9 13.5,3.5 L13.5,9.5 Z"
                        id="形状"></path>
                </g>
            </g>
        </g>
    </g>
</svg>